P3 
# Created by Ant & Christine 
3 3
255 
76
38
0
38
76
38
0
38
76
95
67
38
57
85
57
6
35
63
89
83
76
63
69
63
13
19
25
