P3 
# Created by Ant & Christine 
3 3
255 
155
0
0
0
155
0
0
0
155
0
0
0
0
0
0
0
0
0
155
155
155
0
0
0
0
0
0
