P3 
# Created by Ant & Christine 
3 3
255 
0
0
0
255
255
255
0
0
0
0
0
0
100
100
100
0
0
0
255
255
255
100
100
100
0
0
0
