P3 
# Created by Ant & Christine 
3 3
255 
85
85
85
85
85
85
85
85
85
33
33
33
33
33
33
33
33
33
255
255
255
100
100
100
0
0
0
