P3 
# Created by Ant & Christine 
3 3
255 
54
54
54
182
182
182
18
18
18
21
21
21
72
72
72
7
7
7
255
255
255
100
100
100
0
0
0
