P3 
# Created by Ant & Christine 
3 3
255 
100
89
69
196
175
136
48
43
33
39
35
27
77
69
53
19
17
13
255
255
239
135
120
94
0
0
0
