P3 
# Created by Ant & Christine 
3 3
255 
236
44
0
44
236
44
0
44
236
253
178
44
178
253
178
0
82
157
255
255
236
157
157
157
0
0
0
